<?xml version="1.0" encoding="utf-8"?>
<!-- Generator: Adobe Illustrator 21.1.0, SVG Export Plug-In . SVG Version: 6.00 Build 0)  -->
<svg version="1.1" id="Layer_1" xmlns="http://www.w3.org/2000/svg" xmlns:xlink="http://www.w3.org/1999/xlink" x="0px" y="0px"
	 viewBox="0 0 921.6 817.4" style="enable-background:new 0 0 921.6 817.4;" xml:space="preserve">
<style type="text/css">
	.st0{clip-path:url(#SVGID_2_);}
	.st1{clip-path:url(#SVGID_6_);}
</style>
<g>
	<defs>
		<path id="SVGID_1_" d="M835.2,817.4H86.4C38.7,817.4,0,778.8,0,731V84.5C0,36.8,38.7-1.9,86.4-1.9h748.8
			c47.7,0,86.4,38.7,86.4,86.4V731C921.6,778.8,882.9,817.4,835.2,817.4z M835.2,755c13.2,0,24-10.8,24-24V84.5
			c0-13.2-10.8-24-24-24H86.4c-13.2,0-24,10.8-24,24V731c0,13.2,10.8,24,24,24H835.2"/>
	</defs>
	<clipPath id="SVGID_2_">
		<use xlink:href="#SVGID_1_"  style="overflow:visible;"/>
	</clipPath>
	<g class="st0">
		<defs>
			<rect id="SVGID_3_" width="921.6" height="817.4"/>
		</defs>
		<clipPath id="SVGID_4_">
			<use xlink:href="#SVGID_3_"  style="overflow:visible;"/>
		</clipPath>
		<g style="clip-path:url(#SVGID_4_);">
			<image style="overflow:visible;" width="1920" height="1703" xlink:href="5373A104.jpg"  transform="matrix(0.48 0 0 0.48 0 0)">
			</image>
		</g>
	</g>
</g>
<g>
	<defs>
		<path id="SVGID_5_" d="M205.2,242c11,0,21.4,2.1,31.1,6.4c9.7,4.3,18.3,10.1,25.7,17.4l-22.6,23c-9.5-9.6-20.9-14.4-34-14.4
			c-13.3,0-24.6,4.8-34,14.4c-9.4,9.6-14.1,21.1-14.1,34.4c0,13.5,4.7,24.9,14.1,34.4s20.7,14.3,34,14.3s24.6-4.8,34.1-14.4l22.6,23
			c-7.4,7.4-15.9,13.2-25.7,17.5s-20.1,6.4-31.1,6.4c-22.1,0-40.9-8-56.6-23.8s-23.5-35-23.5-57.4s7.9-41.5,23.5-57.5
			s34.6-23.9,56.6-23.9L205.2,242z M196.5,586l-71.3-163.8h6.3h20.9h1.3h5.1l37.6,87.7l37.6-87.7h6.7h27.3L196.5,586z M276.9,242.4
			h31.8v160.9h-31.8V242.4z M378.1,422.2v32.1h-63.4v32.2h47.5v32.1h-47.5v32.1h63.4V583h-63.4h-31.8V422.2H378.1z M420.6,331.3
			v-88.9h31.8v163.8l-95.2-92v89h-31.8V239.4L420.6,331.3z M395.1,422h51.6c15.3,0,30.3,5.4,41.2,16.5
			c10.9,11.1,15.4,21.5,15.4,36.9v5c0,12-3.3,20.8-10,30.3c-6.7,9.6-12.3,12.4-22.7,16.4l35.8,56h-38.8L427,520.2V583h-31.8
			L395.1,422z M449.7,499.5c6.6,0,9.9-1.7,14.6-6.4c4.6-4.7,6.3-10.1,6.3-16.8c0-6.6-1.7-11-6.3-15.8c-4.6-4.8-12.9-6.5-19.5-6.5
			h-17.8v45.3L449.7,499.5z M566.4,242.4v32.1H503v32.2h47.5v32.1H503V371h63.4v32.2H503h-31.8V242.4H566.4z M570.8,551.1
			c8.8,0,16-7.4,16-16.3c0-6.9-2.7-11.3-8.1-13.3c-11.4-4.3-8.7-3.3-19.8-7.2c-11.7-4.1-22.5-12.2-29.8-22.3
			c-4.3-6-6.5-13.4-6.5-22.3c0-13.4,4.7-24.8,14.2-34.4c9.5-9.6,20.8-14.4,34.1-14.4c13.2,0,24.5,4.8,34,14.4
			c9.5,9.6,14.2,21.1,14.2,34.4h-32c0-8.8-7.3-16.2-15.9-16.2c-8.8,0-16,7.4-16,16.3c0,5.8,2.3,10.2,6.9,13.2
			c9.5,6.2,8.4,5,19.7,8.4c12.2,3.6,23.2,11.3,30.8,21.2c4.4,5.8,6.7,13.3,6.7,22.4c0,13.5-4.7,24.9-14.2,34.5
			c-9.5,9.6-20.8,14.4-34,14.4c-13.3,0-24.6-4.8-34.1-14.4c-9.5-9.6-14.2-21.1-14.2-34.5h32.1c0,9,7.2,16.3,16,16.3L570.8,551.1z
			 M786.4,250v8c0,1.3-0.5,2.5-1.4,3.4c-1,0.9-2.1,1.4-3.5,1.4h-16.3c-1.4,0-2.5-0.5-3.5-1.4c-1-0.9-1.4-2.1-1.4-3.4v-8H629.8v8
			c0,1.3-0.5,2.5-1.4,3.4c-1,0.9-2.1,1.4-3.5,1.4h-16.3c-1.4,0-2.5-0.5-3.5-1.4c-1-0.9-1.4-2.1-1.4-3.4v-8h-3.3
			c-2.7,0-5,0.9-6.9,2.8c-1.9,1.9-2.9,4.1-2.9,6.8v134.1c0,2.7,1,4.9,2.9,6.8c1.9,1.9,4.2,2.8,6.9,2.8h3.3v-8c0-1.3,0.5-2.5,1.4-3.4
			c0.9-0.9,2.1-1.4,3.5-1.4h16.3c1.4,0,2.5,0.5,3.5,1.4c0.9,0.9,1.4,2.1,1.4,3.4v8h130.5v-8c0-1.3,0.5-2.5,1.4-3.4
			c0.9-0.9,2.1-1.4,3.5-1.4h16.3c1.4,0,2.5,0.5,3.5,1.4c0.9,0.9,1.4,2.1,1.4,3.4v8h3.3c2.7,0,5-0.9,6.9-2.8c1.9-1.9,2.9-4.1,2.9-6.8
			V259.5c0-2.7-1-4.9-2.9-6.8c-1.9-1.9-4.2-2.8-6.9-2.8H786.4z M628.4,299.7c-1,0.9-2.1,1.4-3.5,1.4h-16.3c-1.4,0-2.5-0.5-3.5-1.4
			c-1-0.9-1.4-2.1-1.4-3.4v-16c0-1.3,0.5-2.5,1.4-3.4c0.9-0.9,2.1-1.4,3.5-1.4h16.3c1.4,0,2.5,0.5,3.5,1.4c0.9,0.9,1.4,2.1,1.4,3.4
			v16C629.8,297.6,629.3,298.7,628.4,299.7z M628.4,338c-1,0.9-2.1,1.4-3.5,1.4h-16.3c-1.4,0-2.5-0.5-3.5-1.4
			c-1-0.9-1.4-2.1-1.4-3.4v-16c0-1.3,0.5-2.5,1.4-3.4c0.9-0.9,2.1-1.4,3.5-1.4h16.3c1.4,0,2.5,0.5,3.5,1.4c0.9,0.9,1.4,2.1,1.4,3.4
			v16C629.8,335.9,629.3,337,628.4,338z M628.4,376.3c-1,0.9-2.1,1.4-3.5,1.4h-16.3c-1.4,0-2.5-0.5-3.5-1.4c-1-0.9-1.4-2.1-1.4-3.4
			v-16c0-1.3,0.5-2.5,1.4-3.4c0.9-0.9,2.1-1.4,3.5-1.4h16.3c1.4,0,2.5,0.5,3.5,1.4c0.9,0.9,1.4,2.1,1.4,3.4v16
			C629.8,374.2,629.3,375.4,628.4,376.3z M769,445.3c15.8,16,23.6,35.1,23.6,57.5c0,22.4-7.9,41.5-23.6,57.4S734.3,584,712.3,584
			s-41-8-56.6-23.8s-23.5-35-23.5-57.4c0-22.4,7.9-41.5,23.5-57.5c15.7-16,34.6-23.9,56.6-23.9S753.2,429.4,769,445.3z M745.8,318.8
			c-1,0.9-2.1,1.4-3.5,1.4h-94.6c-1.4,0-2.5-0.5-3.5-1.4c-1-0.9-1.4-2.1-1.4-3.4v-47.9c0-1.3,0.5-2.5,1.4-3.4
			c0.9-0.9,2.1-1.4,3.5-1.4h94.6c1.4,0,2.5,0.5,3.5,1.4c0.9,0.9,1.4,2.1,1.4,3.4v47.9C747.2,316.8,746.8,317.9,745.8,318.8z
			 M745.8,389.1c-1,0.9-2.1,1.4-3.5,1.4h-94.6c-1.4,0-2.5-0.5-3.5-1.4c-1-0.9-1.4-2.1-1.4-3.4v-47.9c0-1.3,0.5-2.5,1.4-3.4
			c0.9-0.9,2.1-1.4,3.5-1.4h94.6c1.4,0,2.5,0.5,3.5,1.4c0.9,0.9,1.4,2.1,1.4,3.4v47.9C747.2,387,746.8,388.1,745.8,389.1z
			 M678.3,468.2c-9.4,9.6-14.1,21.1-14.1,34.4c0,13.5,4.7,24.9,14.1,34.4c9.4,9.5,20.7,14.3,34,14.3c13.2,0,24.5-4.8,34-14.3
			c9.5-9.5,14.2-21,14.2-34.4c0-13.4-4.7-24.8-14.2-34.4s-20.8-14.4-34-14.4C699,453.8,687.6,458.6,678.3,468.2z M785,299.7
			c-1,0.9-2.1,1.4-3.5,1.4h-16.3c-1.4,0-2.5-0.5-3.5-1.4c-1-0.9-1.4-2.1-1.4-3.4v-16c0-1.3,0.5-2.5,1.4-3.4c0.9-0.9,2.1-1.4,3.5-1.4
			h16.3c1.4,0,2.5,0.5,3.5,1.4c0.9,0.9,1.4,2.1,1.4,3.4v16C786.4,297.6,785.9,298.7,785,299.7z M785,338c-1,0.9-2.1,1.4-3.5,1.4
			h-16.3c-1.4,0-2.5-0.5-3.5-1.4c-1-0.9-1.4-2.1-1.4-3.4v-16c0-1.3,0.5-2.5,1.4-3.4c0.9-0.9,2.1-1.4,3.5-1.4h16.3
			c1.4,0,2.5,0.5,3.5,1.4c0.9,0.9,1.4,2.1,1.4,3.4v16C786.4,335.9,785.9,337,785,338z M785,376.3c-1,0.9-2.1,1.4-3.5,1.4h-16.3
			c-1.4,0-2.5-0.5-3.5-1.4c-1-0.9-1.4-2.1-1.4-3.4v-16c0-1.3,0.5-2.5,1.4-3.4c0.9-0.9,2.1-1.4,3.5-1.4h16.3c1.4,0,2.5,0.5,3.5,1.4
			c0.9,0.9,1.4,2.1,1.4,3.4v16C786.4,374.2,785.9,375.4,785,376.3z"/>
	</defs>
	<clipPath id="SVGID_6_">
		<use xlink:href="#SVGID_5_"  style="overflow:visible;"/>
	</clipPath>
	<g class="st1">
		<defs>
			<rect id="SVGID_7_" width="921.6" height="817.4"/>
		</defs>
		<clipPath id="SVGID_8_">
			<use xlink:href="#SVGID_7_"  style="overflow:visible;"/>
		</clipPath>
		<g style="clip-path:url(#SVGID_8_);">
			<image style="overflow:visible;" width="1920" height="1703" xlink:href="5373A105.jpg"  transform="matrix(0.48 0 0 0.48 0 0)">
			</image>
		</g>
	</g>
</g>
</svg>
