<?xml version="1.0" encoding="utf-8"?>
<!-- Generator: Adobe Illustrator 21.1.0, SVG Export Plug-In . SVG Version: 6.00 Build 0)  -->
<svg version="1.1" id="Layer_1" xmlns="http://www.w3.org/2000/svg" xmlns:xlink="http://www.w3.org/1999/xlink" x="0px" y="0px"
	 viewBox="0 0 1532 818" style="enable-background:new 0 0 1532 818;" xml:space="preserve">
<style type="text/css">
	.st0{fill:#FFFFFF;}
</style>
<g>
	<g>
		<path class="st0" d="M446.1,23.9c25.4,0,49.3,4.8,71.8,14.5c22.5,9.8,42.3,22.9,59.3,39.5l-52.3,52.3
			c-22-21.8-48.2-32.7-78.4-32.7c-30.7,0-56.8,10.9-78.4,32.7c-21.6,21.8-32.5,47.9-32.5,78.4c0,30.7,10.9,56.8,32.5,78.4
			c21.6,21.6,47.7,32.5,78.4,32.5s56.8-10.9,78.6-32.7l52.3,52.3c-17,16.8-36.8,30-59.3,39.8c-22.5,9.8-46.4,14.5-71.8,14.5
			c-50.9,0-94.5-18.2-130.7-54.3s-54.3-79.8-54.3-130.7s18.2-94.5,54.3-130.9S395.4,23,446.3,23L446.1,23.9z"/>
		<path class="st0" d="M604.4,24.8h73.4v366.3h-73.4V24.8z"/>
		<path class="st0" d="M933.9,227.3V24.8h73.4v373.1L787.6,188.4v202.7h-73.4V18L933.9,227.3z"/>
		<path class="st0" d="M1263.4,24.8V98h-146.3v73.4h109.7v73.2h-109.7v73.2h146.3v73.4h-146.3h-73.4V24.8H1263.4z"/>
		<path class="st0" d="M172.4,800L7.9,426.9h14.5h48.2h3h11.8l86.8,199.7L259,426.9h15.5h62.9L172.4,800z"/>
		<path class="st0" d="M584.3,426.9v73.2H438v73.4h109.7v73.2H438v73.2h146.3v73.4H438h-73.4V426.9H584.3z"/>
		<path class="st0" d="M618.2,426.5h119.1c35.2,0,70,12.3,95.2,37.5c25.2,25.2,35.4,48.9,35.4,84.1v11.4c0,27.3-7.7,47.3-23.2,69.1
			c-15.5,21.8-28.4,28.2-52.5,37.3L875,793.2h-89.5L691.8,650v143.1h-73.4L618.2,426.5z M744.1,603c15.2,0,22.9-3.9,33.6-14.5
			c10.7-10.7,14.5-22.9,14.5-38.2c0-15-3.9-25-14.5-35.9c-10.7-10.9-29.8-14.8-45-14.8h-41.1v103.2L744.1,603z"/>
		<path class="st0" d="M1017.6,720.5c20.2,0,37-16.8,37-37c0-15.7-6.1-25.7-18.6-30.2c-26.4-9.8-20-7.5-45.7-16.4
			c-27-9.3-52-27.7-68.8-50.7c-10-13.6-15-30.4-15-50.7c0-30.4,10.9-56.6,32.7-78.4s47.9-32.7,78.6-32.7c30.4,0,56.6,10.9,78.4,32.7
			c21.8,21.8,32.7,47.9,32.7,78.4h-73.8c0-20-16.8-36.8-36.8-36.8c-20.2,0-37,16.8-37,37c0,13.2,5.2,23.2,15.9,30
			c21.8,14.1,19.3,11.4,45.4,19.1c28.2,8.2,53.6,25.7,71.1,48.2c10.2,13.2,15.5,30.2,15.5,50.9c0,30.7-10.9,56.8-32.7,78.6
			c-21.8,21.8-47.9,32.7-78.4,32.7c-30.7,0-56.8-10.9-78.6-32.7s-32.7-47.9-32.7-78.6h74.1c0,20.4,16.6,37,37,37L1017.6,720.5z"/>
		<path class="st0" d="M1469.6,479.6c36.4,36.4,54.5,80,54.5,130.9c0,50.9-18.2,94.5-54.5,130.7c-36.4,36.1-80,54.3-130.9,54.3
			c-50.9,0-94.5-18.2-130.7-54.3c-36.1-36.1-54.3-79.8-54.3-130.7c0-50.9,18.2-94.5,54.3-130.9s79.8-54.5,130.7-54.5
			C1389.6,425.1,1433.2,443.3,1469.6,479.6z M1260.3,531.7c-21.6,21.8-32.5,47.9-32.5,78.4c0,30.7,10.9,56.8,32.5,78.4
			c21.6,21.6,47.7,32.5,78.4,32.5c30.4,0,56.6-10.9,78.4-32.5c21.8-21.6,32.7-47.7,32.7-78.4c0-30.4-10.9-56.6-32.7-78.4
			c-21.8-21.8-47.9-32.7-78.4-32.7C1308,498.9,1281.9,509.8,1260.3,531.7z"/>
	</g>
</g>
</svg>
