<?xml version="1.0" encoding="utf-8"?>
<!-- Generator: Adobe Illustrator 21.1.0, SVG Export Plug-In . SVG Version: 6.00 Build 0)  -->
<svg version="1.1" id="Layer_1" xmlns="http://www.w3.org/2000/svg" xmlns:xlink="http://www.w3.org/1999/xlink" x="0px" y="0px"
	 viewBox="0 0 918 818" style="enable-background:new 0 0 918 818;" xml:space="preserve">
<style type="text/css">
	.st0{fill:#FFFFFF;}
	.st1{fill:#01D277;}
</style>
<g>
	<g>
		<g>
			<path class="st0" d="M297.4,214.5c12.9,0,24.9,2.4,36.3,7.3s21.4,11.6,30,20l-26.4,26.4c-11.1-11-24.3-16.5-39.6-16.5
				c-15.5,0-28.7,5.5-39.6,16.5c-10.9,11-16.4,24.2-16.4,39.6c0,15.5,5.5,28.7,16.4,39.6c10.9,10.9,24.1,16.4,39.6,16.4
				s28.7-5.5,39.7-16.5l26.4,26.4c-8.6,8.5-18.6,15.2-30,20.1c-11.4,4.9-23.4,7.3-36.3,7.3c-25.7,0-47.8-9.2-66-27.4
				s-27.4-40.3-27.4-66c0-25.7,9.2-47.8,27.4-66.1s40.3-27.5,66-27.5L297.4,214.5z"/>
			<path class="st0" d="M377.4,214.9h37.1v185h-37.1V214.9z"/>
			<path class="st0" d="M543.8,317.2V214.9h37.1v188.5l-111-105.8V400h-37.1V211.5L543.8,317.2z"/>
			<path class="st0" d="M710.3,214.9v37h-73.9v37.1h55.4v37h-55.4v37h73.9V400h-73.9h-37.1v-185H710.3z"/>
			<path class="st0" d="M159.1,606.5L76,418h7.3h24.3h1.5h6L159,518.9L202.8,418h7.8h31.8L159.1,606.5z"/>
			<path class="st0" d="M367.2,418v37h-73.9v37.1h55.4v37h-55.4v37h73.9v37.1h-73.9h-37.1V418H367.2z"/>
			<path class="st0" d="M384.3,417.8h60.2c17.8,0,35.4,6.2,48.1,18.9c12.7,12.7,17.9,24.7,17.9,42.5v5.7c0,13.8-3.9,23.9-11.7,34.9
				c-7.8,11-14.3,14.2-26.5,18.8l41.8,64.4h-45.2l-47.3-72.3v72.3h-37.1L384.3,417.8z M447.9,507c7.7,0,11.6-2,17-7.3
				s7.3-11.6,7.3-19.3c0-7.6-2-12.6-7.3-18.1c-5.4-5.5-15-7.5-22.7-7.5h-20.8v52.1L447.9,507z"/>
			<path class="st0" d="M586.1,566.4c10.2,0,18.7-8.5,18.7-18.7c0-7.9-3.1-13-9.4-15.3c-13.3-4.9-10.1-3.8-23.1-8.3
				c-13.7-4.7-26.3-14-34.8-25.6c-5.1-6.9-7.6-15.4-7.6-25.6c0-15.4,5.5-28.6,16.5-39.6c11-11,24.2-16.5,39.7-16.5
				c15.4,0,28.6,5.5,39.6,16.5c11,11,16.5,24.2,16.5,39.6h-37.3c0-10.1-8.5-18.6-18.6-18.6c-10.2,0-18.7,8.5-18.7,18.7
				c0,6.7,2.6,11.7,8,15.2c11,7.1,9.8,5.7,23,9.6c14.2,4.1,27.1,13,35.9,24.3c5.2,6.7,7.8,15.3,7.8,25.7c0,15.5-5.5,28.7-16.5,39.7
				c-11,11-24.2,16.5-39.6,16.5c-15.5,0-28.7-5.5-39.7-16.5c-11-11-16.5-24.2-16.5-39.7h37.4c0,10.3,8.4,18.7,18.7,18.7L586.1,566.4
				z"/>
			<path class="st0" d="M814.5,444.7c18.4,18.4,27.5,40.4,27.5,66.1c0,25.7-9.2,47.8-27.5,66c-18.4,18.3-40.4,27.4-66.1,27.4
				c-25.7,0-47.8-9.2-66-27.4c-18.3-18.3-27.4-40.3-27.4-66c0-25.7,9.2-47.8,27.4-66.1c18.3-18.4,40.3-27.5,66-27.5
				C774,417.1,796.1,426.3,814.5,444.7z M708.7,471c-10.9,11-16.4,24.2-16.4,39.6c0,15.5,5.5,28.7,16.4,39.6
				c10.9,10.9,24.1,16.4,39.6,16.4c15.4,0,28.6-5.5,39.6-16.4c11-10.9,16.5-24.1,16.5-39.6c0-15.4-5.5-28.6-16.5-39.6
				c-11-11-24.2-16.5-39.6-16.5C732.8,454.4,719.6,459.9,708.7,471z"/>
		</g>
	</g>
	<path class="st1" d="M830,50c21,0,38,17,38,38v642c0,21-17,38-38,38H88c-21,0-38-17-38-38V88c0-21,17-38,38-38H830 M830,0H88
		C39.4,0,0,39.4,0,88v642c0,48.6,39.4,88,88,88h742c48.6,0,88-39.4,88-88V88C918,39.4,878.6,0,830,0L830,0z"/>
</g>
</svg>
