<?xml version="1.0" encoding="utf-8"?>
<!-- Generator: Adobe Illustrator 21.1.0, SVG Export Plug-In . SVG Version: 6.00 Build 0)  -->
<svg version="1.1" id="Layer_1" xmlns="http://www.w3.org/2000/svg" xmlns:xlink="http://www.w3.org/1999/xlink" x="0px" y="0px"
	 viewBox="0 0 1532 818" style="enable-background:new 0 0 1532 818;" xml:space="preserve">
<style type="text/css">
	.st0{fill:#00BBF1;}
	.st1{fill:#FC2943;}
	.st2{fill:#FFFFFF;}
</style>
<g>
	<g>
		<path class="st0" d="M475.3,417.1c-50,0-93.4-18-129-53.6c-35.6-35.6-53.6-79-53.6-129c0-50,18-93.4,53.6-129.3
			c35.5-35.7,78.9-53.9,129-53.9h1.9l-0.2,0.9c24.4,0.2,47.6,5.1,69,14.4c22.1,9.6,41.8,22.7,58.5,39l1.1,1.1L552.3,160l-1.1-1
			c-21.2-21-46.7-31.6-75.7-31.6c-29.5,0-55,10.6-75.7,31.6c-20.8,21-31.4,46.5-31.4,75.7c0,29.4,10.6,54.9,31.4,75.7
			c20.8,20.8,46.3,31.4,75.7,31.4s55-10.6,75.9-31.6l1.1-1.1l53.3,53.3l-1.1,1.1c-16.6,16.4-36.3,29.6-58.5,39.3
			C524.2,412.2,500.4,417.1,475.3,417.1z M473.3,54.3c-48.5,0.5-90.5,18.3-125,53c-35,35.2-52.8,78-52.8,127.1
			c0,49.2,17.7,91.9,52.8,126.9c35,35,77.7,52.8,126.9,52.8c24.7,0,48.2-4.8,69.7-14.1c21.4-9.3,40.4-21.9,56.6-37.6l-49.1-49.1
			c-21.4,20.9-47.3,31.4-77,31.4c-30.2,0-56.4-10.9-77.8-32.3c-21.4-21.4-32.3-47.6-32.3-77.8c0-30,10.9-56.2,32.3-77.8
			c21.3-21.6,47.5-32.5,77.8-32.5c29.4,0,55.2,10.6,76.8,31.4l49.1-49.1c-16.2-15.6-35.3-28.1-56.5-37.4
			c-21.6-9.4-45-14.1-69.7-14.1h-1.9L473.3,54.3z"/>
		<path class="st0" d="M703.5,414.9h-74.9V53.1h74.9V414.9z M631.7,411.9h68.9V56.1h-68.9V411.9z"/>
		<path class="st0" d="M1026.3,423.5L811,218.3v196.5h-74.9V44.4l215.2,205V53.1h74.9V423.5z M808,211.3l215.2,205.2V56.1h-68.9
			v200.3l-215.2-205v360.4H808V211.3z"/>
		<path class="st0" d="M1277.1,414.9h-218.2V53.1h218.2v74.7h-143.3v68.9h107.5v74.7h-107.5V340h143.3V414.9z M1061.9,411.9h212.2
			V343h-143.3v-74.7h107.5v-68.7h-107.5v-74.9h143.3V56.1h-212.2V411.9z"/>
		<path class="st0" d="M207,817.6L43.5,446.9h79.2l0.4,0.9l83.6,192.5l84-193.4h80.1L207,817.6z M48.1,449.9L207,810.2l159.3-360.2
			h-73.5l-86,197.9l-86-197.9H48.1z"/>
		<path class="st0" d="M612,808.7H393.8V446.9H612v74.7H468.6v68.9h107.5v74.7H468.6v68.7H612V808.7z M396.8,805.7H609v-68.9H465.6
			v-74.7h107.5v-68.7H465.6v-74.9H609v-68.7H396.8V805.7z"/>
		<path class="st0" d="M897.9,808.7h-91.3L717.2,672v136.7h-74.9l-0.2-362.2h118.1c36.9,0,70.3,13.2,94.3,37.2
			c25.3,25.3,35.2,48.7,35.2,83.4v11.1c0,25.6-6.7,45.5-23,68.5c-14.8,20.8-27.5,27.6-50.4,36.4L897.9,808.7z M808.2,805.7h84.1
			l-80.5-124.1l1.7-0.7c24-9,36-15.2,50.7-36c15.9-22.5,22.4-41.8,22.4-66.8v-11.1c0-33.8-9.6-56.6-34.3-81.3
			c-23.4-23.4-56.1-36.3-92.2-36.3H645.1l0.2,356.2h68.9V662L808.2,805.7z M766.9,622.4L766.9,622.4l-52.9-0.2v-104h41.8
			c7.2,0,31.6,1.1,45.1,14.9c10.6,10.8,14.7,20.9,14.7,36.2c0,16.4-4.5,28.3-14.7,38.5C789.7,619,781.7,622.4,766.9,622.4z
			 M717,619.2l49.9,0.2c13.8,0,21.3-3.2,31.9-13.8c9.5-9.5,13.8-20.8,13.8-36.3c0-14.6-3.7-23.8-13.8-34.1c-12.7-13-36.1-14-43-14
			H717V619.2z"/>
		<path class="st0" d="M1035.3,810.7c-30.2,0-56.5-10.9-78.1-32.5s-32.5-47.8-32.5-78.1v-1.5h75.6v1.5c0,18.3,14.3,33.4,32.3,34.7
			l-0.2-0.4h2.4c18.9,0,34.8-15.9,34.8-34.8c0-14.7-5.6-24-17.3-28.2l-7.9-2.9c-14.9-5.5-14.9-5.5-30-10.7l-6.9-2.4
			c-26.7-9.2-51.5-27.5-68.2-50.2c-9.9-13.6-15-30.5-15-50.5c0-30.1,10.9-56.3,32.5-77.8s47.8-32.5,78.1-32.5
			c30.1,0,56.3,10.9,77.8,32.5c21.6,21.6,32.5,47.7,32.5,77.8v1.5h-75.3v-1.5c0-18.7-15.8-34.6-34.6-34.6
			c-18.9,0-34.8,15.9-34.8,34.8c0,12.5,4.9,21.7,14.9,28.1c16.9,10.9,18.6,11.4,31.6,15c3.3,0.9,7.3,2,12.5,3.6
			c27.8,8.1,52.8,25,70.4,47.7c10.3,13.2,15.4,30.3,15.4,50.8c0,30.2-10.9,56.5-32.5,78.1C1091.6,799.8,1065.4,810.7,1035.3,810.7z
			 M927.8,701.6c0.4,28.8,11,53.8,31.6,74.4c21,21,46.5,31.6,75.9,31.6c29.3,0,54.7-10.6,75.7-31.6c21-21,31.6-46.5,31.6-75.9
			c0-19.8-5-36.3-14.8-48.9c-17.3-22.2-41.7-38.8-68.9-46.7c-5.2-1.5-9.2-2.6-12.5-3.5c-13.2-3.6-15.2-4.2-32.4-15.3
			c-10.8-6.9-16.3-17.2-16.3-30.6c0-20.5,17.3-37.8,37.8-37.8c19.9,0,36.7,16.4,37.5,36.1h69.4c-0.4-28.6-11-53.6-31.6-74.2
			c-21-21-46.5-31.6-75.7-31.6c-29.4,0-55,10.6-75.9,31.6s-31.6,46.5-31.6,75.7c0,19.3,4.8,35.7,14.4,48.7
			c16.3,22.2,40.6,40.1,66.7,49.1l6.9,2.4c15.1,5.2,15.1,5.2,30,10.7l7.9,2.9c12.8,4.6,19.2,15.1,19.2,31c0,19.7-16,36.4-35.4,37.7
			l0.3,0.5h-2.4c-20.3,0-37-16.1-37.7-36.3H927.8z"/>
		<path class="st0" d="M1349.4,810.9c-50,0-93.4-18-129-53.6c-35.6-35.6-53.6-79-53.6-129c0-50,18-93.4,53.6-129.3
			c35.5-35.7,78.9-53.9,129-53.9c50,0,93.5,18.1,129.3,53.9c35.7,35.7,53.9,79.2,53.9,129.3c0,50.1-18.1,93.5-53.9,129
			C1442.8,792.9,1399.3,810.9,1349.4,810.9z M1349.4,448.2c-49.3,0-92,17.8-126.9,53c-35,35.2-52.8,78-52.8,127.1
			c0,49.2,17.7,91.9,52.8,126.9c35,35,77.7,52.8,126.9,52.8c49.1,0,91.9-17.7,127.1-52.8c35.1-34.9,53-77.6,53-126.9
			c0-49.2-17.8-92-53-127.1C1441.3,466,1398.6,448.2,1349.4,448.2z M1349.4,737.9c-30.2,0-56.4-10.9-77.8-32.3
			c-21.4-21.4-32.3-47.6-32.3-77.8c0-30,10.9-56.2,32.3-77.8l0,0c21.3-21.6,47.5-32.5,77.8-32.5c30.1,0,56.3,10.9,77.8,32.5
			c21.6,21.6,32.5,47.7,32.5,77.8c0,30.3-10.9,56.5-32.5,77.8C1405.6,727.1,1379.4,737.9,1349.4,737.9z M1273.6,552.1
			c-20.8,21-31.4,46.5-31.4,75.7c0,29.4,10.6,54.9,31.4,75.7c20.8,20.8,46.3,31.4,75.7,31.4c29.2,0,54.7-10.6,75.7-31.4
			c21-20.8,31.6-46.2,31.6-75.7c0-29.3-10.6-54.7-31.6-75.7c-21-21-46.5-31.6-75.7-31.6C1319.9,520.5,1294.4,531.1,1273.6,552.1
			L1273.6,552.1z"/>
	</g>
	<g>
		<path class="st1" d="M431.3,373.1c-50,0-93.4-18-129-53.6c-35.6-35.6-53.6-79-53.6-129c0-50,18-93.4,53.6-129.3
			c35.5-35.7,78.9-53.9,129-53.9h1.9L433,8.2c24.4,0.2,47.6,5.1,69,14.4c22.1,9.6,41.8,22.7,58.5,39l1.1,1.1L508.3,116l-1.1-1
			c-21.2-21-46.7-31.6-75.7-31.6c-29.5,0-55,10.6-75.7,31.6c-20.8,21-31.4,46.5-31.4,75.7c0,29.4,10.6,54.9,31.4,75.7
			c20.8,20.8,46.3,31.4,75.7,31.4s55-10.6,75.9-31.6l1.1-1.1l53.3,53.3l-1.1,1.1c-16.6,16.4-36.3,29.6-58.5,39.3
			C480.2,368.2,456.4,373.1,431.3,373.1z M429.3,10.3c-48.5,0.5-90.5,18.3-125,53c-35,35.2-52.8,78-52.8,127.1
			c0,49.2,17.7,91.9,52.8,126.9c35,35,77.7,52.8,126.9,52.8c24.7,0,48.2-4.8,69.7-14.1c21.4-9.3,40.4-21.9,56.6-37.6l-49.1-49.1
			c-21.4,20.9-47.3,31.4-77,31.4c-30.2,0-56.4-10.9-77.8-32.3c-21.4-21.4-32.3-47.6-32.3-77.8c0-30,10.9-56.2,32.3-77.8
			c21.3-21.6,47.5-32.5,77.8-32.5c29.4,0,55.2,10.6,76.8,31.4l49.1-49.1c-16.2-15.6-35.3-28.1-56.5-37.4
			c-21.6-9.4-45-14.1-69.7-14.1h-1.9L429.3,10.3z"/>
		<path class="st1" d="M659.5,370.9h-74.9V9.1h74.9V370.9z M587.7,367.9h68.9V12.1h-68.9V367.9z"/>
		<path class="st1" d="M982.3,379.5L767,174.3v196.5h-74.9V0.4l215.2,205V9.1h74.9V379.5z M764,167.3l215.2,205.2V12.1h-68.9v200.3
			L695.2,7.4v360.4H764V167.3z"/>
		<path class="st1" d="M1233.1,370.9h-218.2V9.1h218.2v74.7h-143.3v68.9h107.5v74.7h-107.5V296h143.3V370.9z M1017.9,367.9h212.2
			V299h-143.3v-74.7h107.5v-68.7h-107.5V80.8h143.3V12.1h-212.2V367.9z"/>
		<path class="st1" d="M163,773.6L-0.5,402.9h79.2l0.4,0.9l83.6,192.5l84-193.4h80.1L163,773.6z M4.1,405.9L163,766.2l159.3-360.2
			h-73.5l-86,197.9l-86-197.9H4.1z"/>
		<path class="st1" d="M568,764.7H349.8V402.9H568v74.7H424.6v68.9h107.5v74.7H424.6v68.7H568V764.7z M352.8,761.7H565v-68.9H421.6
			v-74.7h107.5v-68.7H421.6v-74.9H565v-68.7H352.8V761.7z"/>
		<path class="st1" d="M853.9,764.7h-91.3l-0.4-0.7l-88.9-136v136.7h-74.9l-0.2-362.2h118.1c36.9,0,70.3,13.2,94.3,37.2
			c25.3,25.3,35.2,48.7,35.2,83.4v11.1c0,25.6-6.7,45.5-23,68.5c-14.8,20.9-27.5,27.6-50.4,36.4L853.9,764.7z M764.2,761.7h84.1
			l-80.5-124.1l1.7-0.7c24-9,36-15.2,50.7-36c15.9-22.5,22.4-41.8,22.4-66.8v-11.1c0-33.8-9.6-56.6-34.3-81.3
			c-23.4-23.4-56.1-36.3-92.2-36.3H601.1l0.2,356.2h68.9V618L764.2,761.7z M722.9,578.4L722.9,578.4l-52.9-0.2v-104h41.8
			c7.2,0,31.6,1.1,45.1,14.9c10.6,10.8,14.7,20.9,14.7,36.2c0,16.4-4.5,28.3-14.7,38.5C745.7,575,737.7,578.4,722.9,578.4z
			 M673,575.2l49.9,0.2c13.8,0,21.3-3.2,31.9-13.8c9.5-9.5,13.8-20.8,13.8-36.3c0-14.6-3.7-23.8-13.8-34.1c-12.7-13-36.1-14-43-14
			H673V575.2z"/>
		<path class="st1" d="M991.3,766.7c-30.2,0-56.5-10.9-78.1-32.5c-21.6-21.6-32.5-47.8-32.5-78.1v-1.5h75.6v1.5
			c0,18.3,14.3,33.4,32.3,34.7l-0.2-0.4h2.4c18.9,0,34.8-15.9,34.8-34.8c0-14.7-5.6-24-17.3-28.2l-7.9-2.9
			c-14.9-5.5-14.9-5.5-30-10.7l-6.9-2.4c-26.7-9.2-51.5-27.5-68.2-50.2c-9.9-13.6-15-30.5-15-50.5c0-30.1,10.9-56.3,32.5-77.8
			s47.8-32.5,78.1-32.5c30.1,0,56.3,10.9,77.8,32.5c21.6,21.6,32.5,47.7,32.5,77.8v1.5h-75.3v-1.5c0-18.7-15.8-34.6-34.6-34.6
			c-18.9,0-34.8,15.9-34.8,34.8c0,12.5,4.9,21.7,14.9,28.1c16.9,10.9,18.6,11.4,31.6,15c3.3,0.9,7.3,2,12.5,3.6
			c27.8,8.1,52.8,25,70.4,47.7c10.3,13.2,15.4,30.3,15.4,50.8c0,30.2-10.9,56.5-32.5,78.1C1047.6,755.8,1021.4,766.7,991.3,766.7z
			 M883.8,657.6c0.4,28.8,11,53.8,31.6,74.4c21,21,46.5,31.6,75.9,31.6c29.3,0,54.7-10.6,75.7-31.6c21-21,31.6-46.5,31.6-75.9
			c0-19.8-5-36.3-14.8-48.9c-17.3-22.2-41.7-38.8-68.9-46.7c-5.2-1.5-9.2-2.6-12.5-3.5c-13.2-3.6-15.2-4.2-32.4-15.3
			c-10.8-6.9-16.3-17.2-16.3-30.6c0-20.5,17.3-37.8,37.8-37.8c19.9,0,36.7,16.4,37.5,36.1h69.4c-0.4-28.6-11-53.6-31.6-74.2
			c-21-21-46.5-31.6-75.7-31.6c-29.4,0-55,10.6-75.9,31.6s-31.6,46.5-31.6,75.7c0,19.3,4.8,35.7,14.4,48.7
			c16.3,22.2,40.6,40.1,66.7,49.1l6.9,2.4c15.1,5.2,15.1,5.2,30,10.7l7.9,2.9c12.8,4.6,19.2,15.1,19.2,31c0,19.7-16,36.4-35.4,37.7
			l0.3,0.5h-2.4c-20.3,0-37-16.1-37.7-36.3H883.8z"/>
		<path class="st1" d="M1305.4,766.9c-50,0-93.4-18-129-53.6c-35.6-35.6-53.6-79-53.6-129c0-50,18-93.4,53.6-129.3
			c35.5-35.7,78.9-53.9,129-53.9c50,0,93.5,18.1,129.3,53.9c35.7,35.7,53.9,79.2,53.9,129.3c0,50.1-18.1,93.5-53.9,129
			C1398.8,748.9,1355.3,766.9,1305.4,766.9z M1305.4,404.2c-49.3,0-92,17.8-126.9,53c-35,35.2-52.8,78-52.8,127.1
			c0,49.2,17.7,91.9,52.8,126.9c35,35,77.7,52.8,126.9,52.8c49.1,0,91.9-17.7,127.1-52.8c35.1-34.9,53-77.6,53-126.9
			c0-49.2-17.8-92-53-127.1C1397.3,422,1354.6,404.2,1305.4,404.2z M1305.4,693.9c-30.2,0-56.4-10.9-77.8-32.3
			c-21.4-21.4-32.3-47.6-32.3-77.8c0-30,10.9-56.2,32.3-77.8c21.3-21.6,47.5-32.5,77.8-32.5c30.1,0,56.3,10.9,77.8,32.5
			c21.6,21.6,32.5,47.7,32.5,77.8c0,30.3-10.9,56.5-32.5,77.8C1361.6,683.1,1335.4,693.9,1305.4,693.9z M1305.4,476.5
			c-29.5,0-55,10.6-75.7,31.6c-20.8,21-31.4,46.5-31.4,75.7c0,29.4,10.6,54.9,31.4,75.7c20.8,20.8,46.3,31.4,75.7,31.4
			c29.2,0,54.7-10.6,75.7-31.4c21-20.8,31.6-46.2,31.6-75.7c0-29.3-10.6-54.7-31.6-75.7S1334.6,476.5,1305.4,476.5z"/>
	</g>
	<g>
		<path class="st2" d="M452.6,31.8c24.9,0,48.3,4.7,70.3,14.2c22,9.6,41.4,22.5,58.1,38.7L529.9,136c-21.6-21.4-47.2-32-76.8-32
			c-30,0-55.6,10.7-76.8,32s-31.8,47-31.8,76.8c0,30,10.7,55.6,31.8,76.8s46.7,31.8,76.8,31.8s55.6-10.7,77-32l51.2,51.2
			c-16.7,16.5-36.1,29.4-58.1,38.9c-22,9.6-45.4,14.2-70.3,14.2c-49.9,0-92.6-17.8-128-53.2s-53.2-78.1-53.2-128
			s17.8-92.6,53.2-128.2s78.1-53.4,128-53.4L452.6,31.8z"/>
		<path class="st2" d="M607.8,32.7h71.9v358.8h-71.9V32.7z"/>
		<path class="st2" d="M930.5,231V32.7h71.9v365.4L787.1,192.9v198.5h-71.9V26L930.5,231z"/>
		<path class="st2" d="M1253.2,32.7v71.7h-143.3v71.9h107.5v71.7h-107.5v71.7h143.3v71.9h-143.3H1038V32.7H1253.2z"/>
		<path class="st2" d="M184.6,792L23.4,426.5h14.2h47.2h2.9h11.6l85,195.6l85-195.6h15.1h61.6L184.6,792z"/>
		<path class="st2" d="M588.1,426.5v71.7H444.7v71.9h107.5v71.7H444.7v71.7h143.3v71.9H444.7h-71.9V426.5H588.1z"/>
		<path class="st2" d="M621.2,426.1h116.6c34.5,0,68.5,12,93.3,36.7c24.7,24.7,34.7,47.8,34.7,82.3v11.1c0,26.7-7.6,46.3-22.7,67.7
			c-15.1,21.4-27.8,27.6-51.4,36.5l81,124.9H785l-91.7-140.2v140.2h-71.9L621.2,426.1z M744.5,599c14.9,0,22.5-3.8,32.9-14.2
			c10.5-10.5,14.2-22.5,14.2-37.4c0-14.7-3.8-24.5-14.2-35.2c-10.5-10.7-29.2-14.5-44.1-14.5h-40.3v101L744.5,599z"/>
		<path class="st2" d="M1012.5,714.1c19.8,0,36.3-16.5,36.3-36.3c0-15.4-6-25.1-18.2-29.6c-25.8-9.6-19.6-7.3-44.7-16
			c-26.5-9.1-51-27.2-67.4-49.6c-9.8-13.4-14.7-29.8-14.7-49.6c0-29.8,10.7-55.4,32-76.8c21.4-21.4,47-32,77-32
			c29.8,0,55.4,10.7,76.8,32c21.4,21.4,32,47,32,76.8h-72.3c0-19.6-16.5-36.1-36.1-36.1c-19.8,0-36.3,16.5-36.3,36.3
			c0,12.9,5.1,22.7,15.6,29.4c21.4,13.8,18.9,11.1,44.5,18.7c27.6,8,52.5,25.1,69.7,47.2c10,12.9,15.1,29.6,15.1,49.9
			c0,30-10.7,55.6-32,77c-21.4,21.4-47,32-76.8,32c-30,0-55.6-10.7-77-32c-21.4-21.4-32-47-32-77h72.6c0,20,16.2,36.3,36.3,36.3
			L1012.5,714.1z"/>
		<path class="st2" d="M1455.2,478.2c35.6,35.6,53.4,78.3,53.4,128.2s-17.8,92.6-53.4,128c-35.6,35.4-78.3,53.2-128.2,53.2
			c-49.9,0-92.6-17.8-128-53.2c-35.4-35.4-53.2-78.1-53.2-128s17.8-92.6,53.2-128.2c35.4-35.6,78.1-53.4,128-53.4
			C1376.8,424.8,1419.5,442.6,1455.2,478.2z M1250.2,529.1c-21.1,21.4-31.8,47-31.8,76.8c0,30,10.7,55.6,31.8,76.8
			c21.1,21.1,46.7,31.8,76.8,31.8c29.8,0,55.4-10.7,76.8-31.8c21.4-21.1,32-46.7,32-76.8c0-29.8-10.7-55.4-32-76.8
			c-21.4-21.4-47-32-76.8-32C1296.9,497.1,1271.3,507.8,1250.2,529.1z"/>
	</g>
</g>
</svg>
