<?xml version="1.0" encoding="utf-8"?>
<!-- Generator: Adobe Illustrator 21.1.0, SVG Export Plug-In . SVG Version: 6.00 Build 0)  -->
<svg version="1.1" id="Layer_1" xmlns="http://www.w3.org/2000/svg" xmlns:xlink="http://www.w3.org/1999/xlink" x="0px" y="0px"
	 viewBox="0 0 1532 818" style="enable-background:new 0 0 1532 818;" xml:space="preserve">
<style type="text/css">
	.st0{fill:#FFFFFF;}
	.st1{fill:#00BBF1;}
	.st2{fill:#F0434A;}
</style>
<g>
	<g>
		<path class="st0" d="M452.6,31.8c24.9,0,48.3,4.7,70.3,14.2c22,9.6,41.4,22.5,58.1,38.7L529.9,136c-21.6-21.4-47.2-32-76.8-32
			c-30,0-55.6,10.7-76.8,32s-31.8,47-31.8,76.8c0,30,10.7,55.6,31.8,76.8s46.7,31.8,76.8,31.8s55.6-10.7,77-32l51.2,51.2
			c-16.7,16.5-36.1,29.4-58.1,38.9c-22,9.6-45.4,14.2-70.3,14.2c-49.9,0-92.6-17.8-128-53.2s-53.2-78.1-53.2-128
			s17.8-92.6,53.2-128.2s78.1-53.4,128-53.4L452.6,31.8z"/>
		<path class="st0" d="M607.8,32.7h71.9v358.8h-71.9V32.7z"/>
		<path class="st0" d="M930.5,231V32.7h71.9v365.4L787.1,192.9v198.5h-71.9V26L930.5,231z"/>
		<path class="st0" d="M1253.2,32.7v71.7h-143.3v71.9h107.5v71.7h-107.5v71.7h143.3v71.9h-143.3H1038V32.7H1253.2z"/>
		<path class="st0" d="M184.6,792L23.4,426.5h14.2h47.2h2.9h11.6l85,195.6l85-195.6h15.1h61.6L184.6,792z"/>
		<path class="st0" d="M588.1,426.5v71.7H444.7v71.9h107.5v71.7H444.7v71.7h143.3v71.9H444.7h-71.9V426.5H588.1z"/>
		<path class="st0" d="M621.2,426.1h116.6c34.5,0,68.5,12,93.3,36.7c24.7,24.7,34.7,47.8,34.7,82.3v11.1c0,26.7-7.6,46.3-22.7,67.7
			c-15.1,21.4-27.8,27.6-51.4,36.5l81,124.9H785l-91.7-140.2v140.2h-71.9L621.2,426.1z M744.5,599c14.9,0,22.5-3.8,32.9-14.2
			c10.5-10.5,14.2-22.5,14.2-37.4c0-14.7-3.8-24.5-14.2-35.2c-10.5-10.7-29.2-14.5-44.1-14.5h-40.3v101L744.5,599z"/>
		<path class="st0" d="M1012.5,714.1c19.8,0,36.3-16.5,36.3-36.3c0-15.4-6-25.1-18.2-29.6c-25.8-9.6-19.6-7.3-44.7-16
			c-26.5-9.1-51-27.2-67.4-49.6c-9.8-13.4-14.7-29.8-14.7-49.6c0-29.8,10.7-55.4,32-76.8c21.4-21.4,47-32,77-32
			c29.8,0,55.4,10.7,76.8,32c21.4,21.4,32,47,32,76.8h-72.3c0-19.6-16.5-36.1-36.1-36.1c-19.8,0-36.3,16.5-36.3,36.3
			c0,12.9,5.1,22.7,15.6,29.4c21.4,13.8,18.9,11.1,44.5,18.7c27.6,8,52.5,25.1,69.7,47.2c10,12.9,15.1,29.6,15.1,49.9
			c0,30-10.7,55.6-32,77c-21.4,21.4-47,32-76.8,32c-30,0-55.6-10.7-77-32c-21.4-21.4-32-47-32-77h72.6c0,20,16.2,36.3,36.3,36.3
			L1012.5,714.1z"/>
		<path class="st0" d="M1455.2,478.2c35.6,35.6,53.4,78.3,53.4,128.2s-17.8,92.6-53.4,128c-35.6,35.4-78.3,53.2-128.2,53.2
			c-49.9,0-92.6-17.8-128-53.2c-35.4-35.4-53.2-78.1-53.2-128s17.8-92.6,53.2-128.2c35.4-35.6,78.1-53.4,128-53.4
			C1376.8,424.8,1419.5,442.6,1455.2,478.2z M1250.2,529.1c-21.1,21.4-31.8,47-31.8,76.8c0,30,10.7,55.6,31.8,76.8
			c21.1,21.1,46.7,31.8,76.8,31.8c29.8,0,55.4-10.7,76.8-31.8c21.4-21.1,32-46.7,32-76.8c0-29.8-10.7-55.4-32-76.8
			c-21.4-21.4-47-32-76.8-32C1296.9,497.1,1271.3,507.8,1250.2,529.1z"/>
	</g>
</g>
<g>
	<g>
		<path class="st1" d="M507.2,420.3c-47.6,0-88.9-17.2-122.8-51s-51-75.2-51-122.8c0-47.5,17.2-88.9,51-123
			c33.8-34,75.1-51.2,122.8-51.2h6l-0.2,0.9c21.7,0.7,42.4,5.3,61.6,13.6c21,9.1,39.7,21.6,55.6,37.1l3.4,3.3l-54.4,54.4l-3.3-3.3
			c-19.2-19-42.2-28.6-68.4-28.6c-26.6,0-49.6,9.6-68.4,28.5c-18.8,19-28.4,42-28.4,68.4c0,26.6,9.5,49.6,28.3,68.4
			c18.8,18.8,41.8,28.3,68.4,28.3c26.9,0,49.4-9.3,68.6-28.5l3.3-3.3l54.4,54.4l-3.3,3.3c-15.8,15.6-34.5,28.1-55.6,37.3
			C553.8,415.7,531.1,420.3,507.2,420.3z M501.2,81.8c-42.6,1.4-79.6,17.7-110.1,48.4c-32,32.2-48.3,71.4-48.3,116.4
			c0,45,16.2,84.1,48.3,116.2c32,32,71.1,48.3,116.2,48.3c22.9,0,43.8-4.2,63.8-12.9c18.6-8.1,35.2-18.9,49.4-32.1l-41.2-41.2
			c-20.1,18.6-44.2,28-71.8,28c-29.1,0-54.4-10.5-75-31.1c-20.6-20.6-31.1-45.8-31.1-75c0-28.9,10.4-54.1,31.1-75
			c20.6-20.8,45.8-31.3,75-31.3c27.3,0,51.3,9.4,71.6,28.1l41.2-41.2c-14.3-13.2-30.9-23.9-49.4-32c-20-8.7-40.9-12.9-63.8-12.9h-6
			L501.2,81.8z"/>
		<path class="st1" d="M723.6,418.2h-76.4V74h76.4V418.2z M656.5,408.9h57.8V83.3h-57.8V408.9z"/>
		<path class="st1" d="M1024.8,430.7L823.9,239.1v179.1h-76.4V61.5l200.9,191.3V74h76.4V430.7z M814.6,217.3l200.9,191.6V83.3h-57.8
			v191.3L756.8,83.3v325.6h57.8V217.3z"/>
		<path class="st1" d="M1259,418.2h-210.2V74H1259v76.2h-133.8V208h100.3v76.2h-100.3v57.6H1259V418.2z M1058.1,408.9h191.6v-57.8
			h-133.8v-76.2h100.3v-57.6h-100.3v-76.4h133.8V83.3h-191.6V408.9z"/>
		<path class="st1" d="M256.7,799L99.2,441.6h81.1l76.3,175.6l76.3-175.6h81.9L256.7,799z M113.5,451l143.3,324.9L400.4,451H339
			l-82.4,189.7L174.1,451H113.5z"/>
		<path class="st1" d="M638.1,785.9H427.8V441.6h210.2v76.2H504.3v57.8h100.3v76.2H504.3v57.6h133.8V785.9z M437.2,776.5h191.6
			v-57.8H495v-76.2h100.3V585H495v-76.4h133.8V451H437.2V776.5z"/>
		<path class="st1" d="M907.7,785.9h-93L736.3,666v119.9h-76.4l-0.2-344.7h113.5c35.3,0,67.4,12.7,90.3,35.6
			c24,24,33.8,47.2,33.8,80.2v10.4c0,24.7-6.4,43.7-22,65.9c-13.5,19-25.1,25.9-44.7,33.7L907.7,785.9z M819.8,776.5h70.7
			l-74.1-114.2l5.4-2c21.7-8.2,32.6-13.7,45.8-32.4c14.4-20.4,20.3-37.9,20.3-60.5V557c0-30.6-8.7-51.2-31-73.6
			c-21.2-21.2-51-32.9-83.7-32.9H669l0.2,326H727V634.7L819.8,776.5z M779.5,612L779.5,612l-52.7-0.2V508.1h42.3
			c7,0,30.9,1.1,44.5,14.9c10.5,10.8,14.6,20.9,14.6,36.1c0,16.1-4.7,28.2-14.7,38.2C802.4,608.4,794.1,612,779.5,612z M736.1,602.5
			l43.3,0.2c12.2,0,18.1-2.6,27.4-11.9c8.3-8.3,11.9-18,11.9-31.6c0-12.6-3.2-20.7-12-29.6c-8.7-8.9-25.3-12.1-37.8-12.1h-32.9
			V602.5z"/>
		<path class="st1" d="M1030,787.7c-29.1,0-54.4-10.5-75.2-31.3c-20.8-20.8-31.3-46.1-31.3-75.2v-4.7h77.1v4.7
			c0,14.4,10.5,26.4,24.3,28.8h4.7c15.8,0,29.2-13.4,29.2-29.2c0-12.4-4.4-19.8-14-23.2l-7.4-2.7c-13.9-5.2-13.9-5.2-27.9-10
			l-6.4-2.2c-25.5-8.8-49.3-26.3-65.2-48c-9.7-13.2-14.6-29.7-14.6-49.1c0-29,10.5-54.2,31.3-75c20.8-20.8,46.1-31.3,75.2-31.3
			c29,0,54.2,10.5,75,31.3c20.8,20.8,31.3,46,31.3,75v4.7h-76.9v-4.7c0-15.7-13.3-29-29-29c-15.8,0-29.2,13.4-29.2,29.2
			c0,10.5,4.1,18.2,12.4,23.5c15.3,9.9,16.6,10.3,28.6,13.6c3.1,0.8,6.9,1.9,11.7,3.3c26.5,7.7,50.5,23.9,67.4,45.7
			c10,12.9,15.1,29.5,15.1,49.4c0,29.1-10.5,54.4-31.3,75.2C1084.2,777.2,1059,787.7,1030,787.7z M933,685.9
			c1,24.9,10.4,45.8,28.5,63.9c19.2,19.2,41.6,28.5,68.6,28.5c26.4,0,49.4-9.6,68.4-28.5c19.2-19.2,28.5-41.6,28.5-68.6
			c0-17.7-4.4-32.4-13.1-43.7c-15.5-19.9-38.3-35.4-62.6-42.4c-4.8-1.4-8.6-2.5-11.6-3.3c-13-3.6-15.3-4.4-31.2-14.7
			c-11.1-7.1-16.7-17.6-16.7-31.3c0-10.2,4-19.8,11.4-27.2c7.3-7.3,17-11.4,27.2-11.4c19.2,0,35.6,15,38,33.7h58.4
			c-1.1-24.5-10.6-45.9-28.4-63.7c-18.9-18.9-41.9-28.5-68.4-28.5c-26.9,0-49.4,9.3-68.6,28.5c-18.9,18.9-28.5,41.9-28.5,68.4
			c0,17.6,4.2,31.8,12.8,43.6c14.8,20.2,36.9,36.5,60.7,44.7l6.4,2.2c14.1,4.9,14.1,4.9,28.1,10.1l7.4,2.7
			c13.3,4.8,20.1,15.6,20.1,32c0,10.2-4,19.8-11.4,27.2c-5.6,5.6-12.5,9.2-20,10.7l0.6,1.1h-7.6c-19.7,0-35.9-14.8-38.3-33.9H933z"
			/>
		<path class="st1" d="M1323.2,788c-47.6,0-88.9-17.2-122.8-51c-33.9-33.9-51-75.2-51-122.8c0-47.5,17.2-88.9,51-123
			c33.8-34,75.1-51.2,122.8-51.2c47.6,0,89,17.2,123,51.2c34,34,51.2,75.4,51.2,123c0,47.7-17.2,89-51.2,122.8
			C1412.1,770.8,1370.7,788,1323.2,788z M1323.2,449.3c-45.1,0-84.2,16.3-116.1,48.5c-32,32.2-48.3,71.4-48.3,116.4
			c0,45,16.2,84.1,48.3,116.2c32,32,71.1,48.3,116.2,48.3c45,0,84.1-16.2,116.4-48.3c32.2-32,48.5-71,48.5-116.1
			c0-45-16.3-84.2-48.5-116.4C1407.3,465.6,1368.2,449.3,1323.2,449.3z M1323.2,719.8c-29.1,0-54.4-10.5-75-31.1s-31.1-45.8-31.1-75
			c0-28.9,10.4-54.1,31.1-75l0,0c20.6-20.8,45.8-31.3,75-31.3c29,0,54.2,10.5,75,31.3c20.8,20.8,31.3,46,31.3,75
			c0,29.2-10.5,54.4-31.3,75C1377.3,709.4,1352.1,719.8,1323.2,719.8z M1254.8,545.4c-18.8,19-28.4,42-28.4,68.4
			c0,26.6,9.5,49.6,28.3,68.4c18.8,18.8,41.8,28.3,68.4,28.3c26.4,0,49.4-9.5,68.4-28.4c18.9-18.7,28.5-41.7,28.5-68.4
			c0-26.4-9.6-49.4-28.5-68.4c-18.9-18.9-41.9-28.5-68.4-28.5C1296.5,516.8,1273.5,526.4,1254.8,545.4L1254.8,545.4z"/>
	</g>
</g>
<g>
	<g>
		<path class="st2" d="M442.7,373.8c-47.6,0-88.9-17.2-122.8-51c-33.9-33.9-51-75.2-51-122.8c0-47.5,17.2-88.9,51-123
			c33.8-34,75.1-51.2,122.8-51.2h6l-0.2,0.9c21.7,0.7,42.4,5.3,61.6,13.6c21,9.1,39.7,21.6,55.6,37.1l3.4,3.3l-54.4,54.4l-3.3-3.3
			c-19.2-19-42.2-28.6-68.4-28.6c-26.6,0-49.6,9.6-68.4,28.5c-18.8,19-28.4,42-28.4,68.4c0,26.6,9.5,49.6,28.3,68.4
			c18.8,18.8,41.8,28.3,68.4,28.3c26.9,0,49.4-9.3,68.6-28.5l3.3-3.3l54.4,54.4l-3.3,3.3c-15.8,15.6-34.5,28.1-55.6,37.3
			C489.3,369.2,466.6,373.8,442.7,373.8z M436.7,35.2c-42.6,1.4-79.6,17.7-110.1,48.4c-32,32.2-48.3,71.4-48.3,116.4
			c0,45,16.2,84.1,48.3,116.2c32,32,71.1,48.3,116.2,48.3c22.9,0,43.8-4.2,63.8-12.9c18.6-8.1,35.2-18.9,49.4-32.1l-41.2-41.2
			c-20.1,18.6-44.2,28-71.8,28c-29.1,0-54.4-10.5-75-31.1c-20.6-20.6-31.1-45.8-31.1-75c0-28.9,10.4-54.1,31.1-75
			c20.6-20.8,45.8-31.3,75-31.3c27.3,0,51.3,9.4,71.6,28.1l41.2-41.2c-14.3-13.2-30.9-23.9-49.4-32c-20-8.7-40.9-12.9-63.8-12.9h-6
			L436.7,35.2z"/>
		<path class="st2" d="M659,371.7h-76.4V27.5H659V371.7z M591.9,362.4h57.8V36.8h-57.8V362.4z"/>
		<path class="st2" d="M960.3,384.2L759.4,192.6v179.1h-76.4V15l200.9,191.3V27.5h76.4V384.2z M750,170.8l200.9,191.6V36.8h-57.8
			v191.3L692.3,36.8v325.6H750V170.8z"/>
		<path class="st2" d="M1194.4,371.7H984.2V27.5h210.2v76.2h-133.8v57.8H1161v76.2h-100.3v57.6h133.8V371.7z M993.5,362.4h191.6
			v-57.8h-133.8v-76.2h100.3v-57.6h-100.3V94.4h133.8V36.8H993.5V362.4z"/>
		<path class="st2" d="M192.2,752.5L34.6,395.1h81.1L192,570.7l76.3-175.6h81.9L192.2,752.5z M49,404.4l143.3,324.9l143.7-324.9
			h-61.4L192,594.1l-82.4-189.7H49z"/>
		<path class="st2" d="M573.5,739.3H363.3V395.1h210.2v76.2H439.7v57.8h100.3v76.2H439.7v57.6h133.8V739.3z M372.6,730h191.6v-57.8
			H430.4V596h100.3v-57.6H430.4V462h133.8v-57.6H372.6V730z"/>
		<path class="st2" d="M843.2,739.3h-93l-78.4-119.9v119.9h-76.4l-0.2-344.7h113.5c35.3,0,67.4,12.7,90.3,35.6
			c24,24,33.8,47.2,33.8,80.2v10.4c0,24.7-6.4,43.7-22,65.9c-13.5,19-25.1,25.9-44.7,33.7L843.2,739.3z M755.3,730H826l-74.1-114.2
			l5.4-2c21.7-8.2,32.6-13.7,45.8-32.4c14.4-20.4,20.3-37.9,20.3-60.5v-10.4c0-30.6-8.7-51.2-31-73.6c-21.2-21.2-51-32.9-83.7-32.9
			H604.5l0.2,326h57.8V588.1L755.3,730z M714.9,565.5L714.9,565.5l-52.7-0.2V461.6h42.3c7,0,30.9,1.1,44.5,14.9
			c10.5,10.8,14.6,20.9,14.6,36.1c0,16.1-4.7,28.2-14.7,38.2C737.9,561.9,729.6,565.5,714.9,565.5z M671.6,555.9l43.3,0.2
			c12.2,0,18.1-2.6,27.4-11.9c8.3-8.3,11.9-18,11.9-31.6c0-12.6-3.2-20.7-12-29.6c-8.7-8.9-25.3-12.1-37.8-12.1h-32.9V555.9z"/>
		<path class="st2" d="M965.5,741.2c-29.1,0-54.4-10.5-75.2-31.3c-20.8-20.8-31.3-46.1-31.3-75.2v-4.7h77.1v4.7
			c0,14.4,10.5,26.4,24.3,28.8h4.7c15.8,0,29.2-13.4,29.2-29.2c0-12.4-4.4-19.8-14-23.2l-7.4-2.7c-13.9-5.2-13.9-5.2-27.9-10
			l-6.4-2.2c-25.5-8.8-49.3-26.3-65.2-48c-9.7-13.2-14.6-29.7-14.6-49.1c0-29,10.5-54.2,31.3-75c20.8-20.8,46.1-31.3,75.2-31.3
			c29,0,54.2,10.5,75,31.3c20.8,20.8,31.3,46,31.3,75v4.7h-76.9v-4.7c0-15.7-13.3-29-29-29c-15.8,0-29.2,13.4-29.2,29.2
			c0,10.5,4.1,18.2,12.4,23.5c15.3,9.9,16.6,10.3,28.6,13.6c3.1,0.8,6.9,1.9,11.7,3.3c26.5,7.7,50.5,23.9,67.4,45.7
			c10,12.9,15.1,29.5,15.1,49.4c0,29.1-10.5,54.4-31.3,75.2C1019.7,730.7,994.5,741.2,965.5,741.2z M868.4,639.4
			c1,24.9,10.4,45.8,28.5,63.9c19.2,19.2,41.6,28.5,68.6,28.5c26.4,0,49.4-9.6,68.4-28.5c19.2-19.2,28.5-41.6,28.5-68.6
			c0-17.7-4.4-32.4-13.1-43.7c-15.5-19.9-38.3-35.4-62.6-42.4c-4.8-1.4-8.6-2.5-11.6-3.3c-13-3.6-15.3-4.4-31.2-14.7
			c-11.1-7.1-16.7-17.6-16.7-31.3c0-10.2,4-19.8,11.4-27.2c7.3-7.3,17-11.4,27.2-11.4c19.2,0,35.6,15,38,33.7h58.4
			c-1.1-24.5-10.6-45.9-28.4-63.7c-18.9-18.9-41.9-28.5-68.4-28.5c-26.9,0-49.4,9.3-68.6,28.5c-18.9,18.9-28.5,41.9-28.5,68.4
			c0,17.6,4.2,31.8,12.8,43.6c14.8,20.2,36.9,36.5,60.7,44.7l6.4,2.2c14.1,4.9,14.1,4.9,28.1,10.1l7.4,2.7
			c13.3,4.8,20.1,15.6,20.1,32c0,10.2-4,19.8-11.4,27.2c-5.6,5.6-12.5,9.2-20,10.7l0.6,1.1h-7.6c-19.7,0-35.9-14.8-38.3-33.9H868.4z
			"/>
		<path class="st2" d="M1258.6,741.4c-47.6,0-88.9-17.2-122.8-51c-33.9-33.9-51-75.2-51-122.8c0-47.5,17.2-88.9,51-123
			c33.8-34,75.1-51.2,122.8-51.2c47.6,0,89,17.2,123,51.2c34,34,51.2,75.4,51.2,123c0,47.7-17.2,89-51.2,122.8
			C1347.5,724.3,1306.2,741.4,1258.6,741.4z M1258.6,402.8c-45.1,0-84.2,16.3-116.1,48.5c-32,32.2-48.3,71.4-48.3,116.4
			c0,45,16.2,84.1,48.3,116.2c32,32,71.1,48.3,116.2,48.3c45,0,84.1-16.2,116.4-48.3c32.2-32,48.5-71,48.5-116.1
			c0-45-16.3-84.2-48.5-116.4C1342.8,419.1,1303.7,402.8,1258.6,402.8z M1258.6,673.3c-29.1,0-54.4-10.5-75-31.1s-31.1-45.8-31.1-75
			c0-28.9,10.4-54.1,31.1-75l0,0c20.6-20.8,45.8-31.3,75-31.3c29,0,54.2,10.5,75,31.3c20.8,20.8,31.3,46,31.3,75
			c0,29.2-10.5,54.4-31.3,75C1312.8,662.8,1287.5,673.3,1258.6,673.3z M1190.3,498.8c-18.8,19-28.4,42-28.4,68.4
			c0,26.6,9.5,49.6,28.3,68.4c18.8,18.8,41.8,28.3,68.4,28.3c26.4,0,49.4-9.5,68.4-28.4c18.9-18.7,28.5-41.7,28.5-68.4
			c0-26.4-9.6-49.4-28.5-68.4c-18.9-18.9-41.9-28.5-68.4-28.5C1232,470.3,1209,479.9,1190.3,498.8L1190.3,498.8z"/>
	</g>
</g>
<g>
	<g>
		<path class="st0" d="M473.5,56.9c23.3,0,45.1,4.4,65.7,13.3c20.6,8.9,38.6,21,54.2,36.1l-47.8,47.8c-20.2-19.9-44-29.9-71.7-29.9
			c-28,0-51.9,10-71.7,29.9c-19.7,19.9-29.7,43.8-29.7,71.7c0,28,10,51.9,29.7,71.7c19.7,19.7,43.6,29.7,71.7,29.7
			c28,0,51.9-10,71.9-29.9l47.8,47.8c-15.6,15.4-33.7,27.4-54.2,36.4s-42.4,13.3-65.7,13.3c-46.5,0-86.4-16.6-119.5-49.7
			s-49.7-72.9-49.7-119.5s16.6-86.4,49.7-119.7s72.9-49.9,119.5-49.9L473.5,56.9z"/>
		<path class="st0" d="M618.3,57.7h67.1v334.9h-67.1V57.7z"/>
		<path class="st0" d="M919.5,242.8V57.7h67.1v341.1L785.7,207.3v185.3h-67.1V51.5L919.5,242.8z"/>
		<path class="st0" d="M1220.8,57.7v66.9H1087v67.1h100.3v66.9H1087v66.9h133.8v67.1H1087h-67.1V57.7H1220.8z"/>
		<path class="st0" d="M223.2,766.5L72.8,425.4h13.3h44h2.7h10.8L223,608l79.4-182.6h14.1h57.5L223.2,766.5z"/>
		<path class="st0" d="M599.9,425.4v66.9H466.1v67.1h100.3v66.9H466.1v66.9h133.8v67.1H466.1H399V425.4H599.9z"/>
		<path class="st0" d="M630.9,425h108.9c32.2,0,64,11.2,87,34.3c23.1,23.1,32.4,44.7,32.4,76.9v10.4c0,24.9-7.1,43.2-21.2,63.2
			c-14.1,19.9-26,25.8-48,34.1l75.6,116.6h-81.9l-85.6-130.9v130.9h-67.1L630.9,425z M746,586.4c13.9,0,21-3.5,30.7-13.3
			c9.8-9.8,13.3-21,13.3-34.9c0-13.7-3.5-22.9-13.3-32.8c-9.8-10-27.2-13.5-41.1-13.5H698v94.3L746,586.4z"/>
		<path class="st0" d="M996.1,693.8c18.5,0,33.9-15.4,33.9-33.9c0-14.3-5.6-23.5-17-27.6c-24.1-8.9-18.3-6.9-41.8-15
			c-24.7-8.5-47.6-25.3-62.9-46.3c-9.1-12.5-13.7-27.8-13.7-46.3c0-27.8,10-51.7,29.9-71.7c19.9-19.9,43.8-29.9,71.9-29.9
			c27.8,0,51.7,10,71.7,29.9c19.9,19.9,29.9,43.8,29.9,71.7h-67.5c0-18.3-15.4-33.7-33.7-33.7c-18.5,0-33.9,15.4-33.9,33.9
			c0,12,4.8,21.2,14.5,27.4c19.9,12.9,17.7,10.4,41.6,17.5c25.8,7.5,49,23.5,65,44c9.3,12,14.1,27.6,14.1,46.5
			c0,28-10,51.9-29.9,71.9c-19.9,19.9-43.8,29.9-71.7,29.9c-28,0-51.9-10-71.9-29.9c-19.9-19.9-29.9-43.8-29.9-71.9h67.7
			c0,18.7,15.2,33.9,33.9,33.9L996.1,693.8z"/>
		<path class="st0" d="M1409.3,473.6c33.2,33.2,49.9,73.1,49.9,119.7s-16.6,86.4-49.9,119.5c-33.2,33-73.1,49.7-119.7,49.7
			c-46.5,0-86.4-16.6-119.5-49.7c-33-33-49.7-72.9-49.7-119.5s16.6-86.4,49.7-119.7s72.9-49.9,119.5-49.9
			C1336.2,423.7,1376.1,440.3,1409.3,473.6z M1218,521.1c-19.7,19.9-29.7,43.8-29.7,71.7c0,28,10,51.9,29.7,71.7
			s43.6,29.7,71.7,29.7c27.8,0,51.7-10,71.7-29.7c19.9-19.7,29.9-43.6,29.9-71.7c0-27.8-10-51.7-29.9-71.7
			c-19.9-19.9-43.8-29.9-71.7-29.9C1261.6,491.2,1237.7,501.2,1218,521.1z"/>
	</g>
</g>
</svg>
